# File created by Blade
# Date/Time:  Wed Sep 24 20:15:16 2014
# Frame Rate: 120.000 fps
#------------------------------------------------------
:FULLY-SPECIFIED
:DEGREES
735
root -6.210910 32.755365 -5.128250 16.685184 5.092845 -1.577382
Spine -21.583956 4.623915 2.656380
Head -1.782418 -3.456417 5.692906
LeftShoulder -6.443240 18.572787 9.210871
LeftArm 25.517219 41.711266 -69.144899
LeftForeArm -0.250920 -0.000000 22.229717
LeftHand -22.256018 -0.000000 -8.109896
LeftHandThumb1 -26.253704 0.000000 33.147579
RightShoulder -18.045420 11.714504 -14.114286
RightArm -30.543959 45.393869 65.206988
RightForeArm 62.024521 -0.000000 145.636206
RightHand 9.146520 -0.000000 51.656980
RightHandThumb1 -24.326973 -0.000000 -32.862282
LeftUpLeg -14.262945 4.895794 4.622847
LeftLeg 0.850673 -0.000000 -0.000000
LeftFoot -11.732874 6.794264 -18.280744
LeftToeBase 9.662784 -0.000000 -0.000000
RightUpLeg -14.137802 -7.565893 -0.544752
RightLeg 3.499338 -0.000000 -0.000000
RightFoot -9.087989 -4.001977 -13.363793
RightToeBase 0.131981 -0.000000 -0.000000
736
root -6.210032 32.755584 -5.131360 16.692309 5.084479 -1.575543
Spine -21.576383 4.649071 2.641575
Head -1.779869 -3.533832 5.695048
LeftShoulder -6.443482 18.572659 9.199308
LeftArm 25.556337 41.703289 -69.085087
LeftForeArm -0.229244 -0.000000 22.267369
LeftHand -22.264442 0.000000 -8.074543
LeftHandThumb1 -26.253704 0.000000 33.147579
RightShoulder -18.040541 11.747800 -14.119177
RightArm -30.495236 45.315797 65.264710
RightForeArm 62.015078 -0.000000 145.632114
RightHand 9.112835 -0.000000 51.675680
RightHandThumb1 -24.326973 -0.000000 -32.862282
LeftUpLeg -14.280267 4.892497 4.618255
LeftLeg 0.865986 -0.000000 -0.000000
LeftFoot -11.741421 6.816607 -18.260466
LeftToeBase 9.698773 -0.000000 -0.000000
RightUpLeg -14.155570 -7.558557 -0.548317
RightLeg 3.509883 -0.000000 -0.000000
RightFoot -9.087961 -4.009085 -13.375335
RightToeBase 0.149678 -0.000000 -0.000000
737
root -6.207971 32.755499 -5.132175 16.695092 5.079613 -1.568012
Spine -21.577192 4.669279 2.625419
Head -1.759852 -3.615414 5.688392
LeftShoulder -6.445090 18.592780 9.189376
LeftArm 25.598382 41.667178 -69.044845
LeftForeArm -0.173352 -0.000000 22.291278
LeftHand -22.283123 0.000000 -8.061122
LeftHandThumb1 -26.253704 0.000000 33.147579
RightShoulder -18.038419 11.753328 -14.123924
RightArm -30.392537 45.220555 65.366628
RightForeArm 61.668308 -0.000000 145.672015
RightHand 9.299887 0.000000 51.509315
RightHandThumb1 -24.326973 -0.000000 -32.862282
LeftUpLeg -14.283848 4.898971 4.605125
LeftLeg 0.867890 -0.000000 -0.000000
LeftFoot -11.740876 6.816588 -18.235120
LeftToeBase 9.668150 -0.000000 -0.000000
RightUpLeg -14.159289 -7.559592 -0.557314
RightLeg 3.509892 -0.000000 -0.000000
RightFoot -9.091401 -4.020264 -13.381024
RightToeBase 0.185884 -0.000000 -0.000000
738
root -6.206284 32.755204 -5.132818 16.698899 5.072759 -1.566347
Spine -21.578730 4.686784 2.623918
Head -1.754265 -3.696960 5.667263
LeftShoulder -6.469268 18.633795 9.166873
LeftArm 25.670238 41.628440 -68.979384
LeftForeArm -0.106977 -0.000000 22.328065
LeftHand -22.292787 -0.000000 -8.023133
LeftHandThumb1 -26.253704 0.000000 33.147579
RightShoulder -18.034323 11.753941 -14.136693
RightArm -30.292770 45.144528 65.475856
RightForeArm 61.516901 -0.000000 145.676829
RightHand 9.319143 -0.000000 51.510620
RightHandThumb1 -24.326973 -0.000000 -32.862282
LeftUpLeg -14.287715 4.918174 4.594574
LeftLeg 0.867389 -0.000000 -0.000000
LeftFoot -11.734934 6.800053 -18.222583
LeftToeBase 9.671827 -0.000000 -0.000000
RightUpLeg -14.165898 -7.557759 -0.562519
RightLeg 3.514020 -0.000000 -0.000000
RightFoot -9.092473 -4.017755 -13.385271
RightToeBase 0.152099 -0.000000 -0.000000
739
root -6.204239 32.754815 -5.131043 16.689861 5.084985 -1.552555
Spine -21.572894 4.675153 2.617101
Head -1.731146 -3.779031 5.632356
LeftShoulder -6.481105 18.658982 9.149093
LeftArm 25.683390 41.559579 -68.962247
LeftForeArm -0.017313 -0.000000 22.378234
LeftHand -22.316449 -0.000000 -7.948124
LeftHandThumb1 -26.253704 0.000000 33.147579
RightShoulder -18.057082 11.689076 -14.157238
RightArm -30.105307 45.068581 65.689774
RightForeArm 61.558130 -0.000000 145.629449
RightHand 9.194258 -0.000000 51.603383
RightHandThumb1 -24.326973 -0.000000 -32.862282
LeftUpLeg -14.273288 4.914179 4.579856
LeftLeg 0.860080 -0.000000 -0.000000
LeftFoot -11.720821 6.784015 -18.214200
LeftToeBase 9.665569 -0.000000 -0.000000
RightUpLeg -14.141548 -7.586502 -0.575213
RightLeg 3.493105 -0.000000 -0.000000
RightFoot -9.093369 -4.002062 -13.380954
RightToeBase 0.155502 -0.000000 -0.000000
740
root -6.203202 32.754431 -5.131427 16.691350 5.076911 -1.548586
Spine -21.572509 4.690068 2.603751
Head -1.716317 -3.869745 5.616744
LeftShoulder -6.503812 18.673537 9.139843
LeftArm 25.709750 41.501580 -68.938656
LeftForeArm 0.016176 -0.000000 22.413167
LeftHand -22.341435 -0.000000 -7.947228
LeftHandThumb1 -26.253704 0.000000 33.147579
RightShoulder -18.052363 11.696958 -14.166047
RightArm -30.026704 44.979321 65.786223
RightForeArm 61.549988 -0.000000 145.595381
RightHand 9.185097 -0.000000 51.623536
RightHandThumb1 -24.326973 -0.000000 -32.862282
LeftUpLeg -14.270928 4.925106 4.571375
LeftLeg 0.854381 -0.000000 -0.000000
LeftFoot -11.719300 6.777397 -18.216329
LeftToeBase 9.683095 -0.000000 -0.000000
RightUpLeg -14.140905 -7.581743 -0.581221
RightLeg 3.485561 -0.000000 -0.000000
RightFoot -9.095833 -4.009253 -13.375681
RightToeBase 0.143949 -0.000000 -0.000000
741
root -6.201773 32.754286 -5.131818 16.691179 5.072328 -1.548282
Spine -21.570346 4.698919 2.600506
Head -1.698085 -3.936117 5.603920
LeftShoulder -6.528366 18.696605 9.126041
LeftArm 25.734109 41.426311 -68.928493
LeftForeArm 0.034446 0.000000 22.453576
LeftHand -22.362875 -0.000000 -7.967316
LeftHandThumb1 -26.253704 0.000000 33.147579
RightShoulder -18.050121 11.714903 -14.166872
RightArm -29.926701 44.883425 65.883282
RightForeArm 61.572069 -0.000000 145.545593
RightHand 9.158795 -0.000000 51.644510
RightHandThumb1 -24.326973 -0.000000 -32.862282
LeftUpLeg -14.267552 4.929813 4.568422
LeftLeg 0.848999 -0.000000 -0.000000
LeftFoot -11.703841 6.746599 -18.351811
LeftToeBase 9.623910 -0.000000 -0.000000
RightUpLeg -14.139506 -7.568619 -0.587986
RightLeg 3.483846 -0.000000 -0.000000
RightFoot -9.095656 -4.008912 -13.381792
RightToeBase 0.148623 -0.000000 -0.000000
742
root -6.200024 32.754456 -5.131893 16.689515 5.064669 -1.543371
Spine -21.570414 4.702507 2.598515
Head -1.680159 -3.975132 5.578393
LeftShoulder -6.545433 18.707870 9.108024
LeftArm 25.719656 41.343862 -68.940660
LeftForeArm 0.047722 -0.000000 22.498313
LeftHand -22.353531 0.000000 -7.959433
LeftHandThumb1 -26.253704 0.000000 33.147579
RightShoulder -18.062539 11.672214 -14.162131
RightArm -29.682379 44.726021 66.109196
RightForeArm 61.505665 -0.000000 145.495499
RightHand 9.225884 -0.000000 51.597434
RightHandThumb1 -24.326973 -0.000000 -32.862282
LeftUpLeg -14.263203 4.932274 4.556431
LeftLeg 0.848652 -0.000000 -0.000000
LeftFoot -11.723443 6.781205 -18.229548
LeftToeBase 9.701718 -0.000000 -0.000000
RightUpLeg -14.137176 -7.578070 -0.596282
RightLeg 3.482044 -0.000000 -0.000000
RightFoot -9.106949 -3.989359 -13.386554
RightToeBase 0.182840 -0.000000 -0.000000
743
root -6.198610 32.754392 -5.132291 16.692429 5.062094 -1.545198
Spine -21.571212 4.718535 2.590554
Head -1.672797 -4.027416 5.576626
LeftShoulder -6.555656 18.720827 9.109494
LeftArm 25.734755 41.279452 -68.946071
LeftForeArm 0.054347 -0.000000 22.533805
LeftHand -22.367554 -0.000000 -7.996947
LeftHandThumb1 -26.253704 0.000000 33.147579
RightShoulder -18.039449 11.721747 -14.141566
RightArm -29.650778 44.692928 66.106482
RightForeArm 61.562932 -0.000000 145.456525
RightHand 9.125249 -0.000000 51.670816
RightHandThumb1 -24.326973 -0.000000 -32.862282
LeftUpLeg -14.263408 4.941120 4.553514
LeftLeg 0.842025 -0.000000 -0.000000
LeftFoot -11.717419 6.776036 -18.215549
LeftToeBase 9.687230 -0.000000 -0.000000
RightUpLeg -14.136938 -7.575416 -0.597986
RightLeg 3.472545 -0.000000 -0.000000
RightFoot -9.088406 -3.990482 -13.367181
RightToeBase 0.138452 -0.000000 -0.000000
744
root -6.198319 32.754747 -5.133116 16.696140 5.056860 -1.547183
Spine -21.575667 4.732452 2.583161
Head -1.658156 -4.068967 5.576093
LeftShoulder -6.564395 18.727529 9.104688
LeftArm 25.730478 41.200820 -68.958753
LeftForeArm 0.044461 -0.000000 22.577875
LeftHand -22.357522 -0.000000 -8.028133
LeftHandThumb1 -26.253704 0.000000 33.147579
RightShoulder -18.046612 11.718970 -14.135153
RightArm -29.498640 44.554343 66.254957
RightForeArm 61.472156 0.000000 145.412986
RightHand 9.222006 -0.000000 51.653712
RightHandThumb1 -24.326973 -0.000000 -32.862282
LeftUpLeg -14.268782 4.947995 4.553845
LeftLeg 0.840825 -0.000000 -0.000000
LeftFoot -11.677915 6.753998 -18.342347
LeftToeBase 9.501053 -0.000000 -0.000000
RightUpLeg -14.145781 -7.579561 -0.594868
RightLeg 3.477763 -0.000000 -0.000000
RightFoot -9.079005 -3.985006 -13.394331
RightToeBase 0.115885 -0.000000 -0.000000
745
root -6.197293 32.755040 -5.133971 16.697297 5.051115 -1.544489
Spine -21.576027 4.739541 2.576825
Head -1.639580 -4.088305 5.565586
LeftShoulder -6.577688 18.722127 9.095176
LeftArm 25.725365 41.138267 -68.963426
LeftForeArm 0.020052 -0.000000 22.616461
LeftHand -22.381892 -0.000000 -7.972722
LeftHandThumb1 -26.253704 0.000000 33.147579
RightShoulder -18.043343 11.728332 -14.119179
RightArm -29.367134 44.427790 66.377818
RightForeArm 61.460184 0.000000 145.381964
RightHand 9.212680 -0.000000 51.588450
RightHandThumb1 -24.326973 -0.000000 -32.862282
LeftUpLeg -14.267043 4.938811 4.548795
LeftLeg 0.835527 -0.000000 -0.000000
LeftFoot -11.695877 6.804876 -18.174999
LeftToeBase 9.618461 -0.000000 -0.000000
RightUpLeg -14.146490 -7.569963 -0.601478
RightLeg 3.473106 -0.000000 -0.000000
RightFoot -9.084993 -3.990236 -13.379265
RightToeBase 0.158561 -0.000000 -0.000000
746
root -6.197089 32.755019 -5.134212 16.694079 5.051136 -1.546269
Spine -21.571976 4.754251 2.571128
Head -1.628331 -4.103434 5.555056
LeftShoulder -6.575817 18.712391 9.089184
LeftArm 25.721531 41.084028 -68.961892
LeftForeArm -0.027201 -0.000000 22.659694
LeftHand -22.416872 -0.000000 -7.941311
LeftHandThumb1 -26.253704 0.000000 33.147579
RightShoulder -18.063875 11.691497 -14.137000
RightArm -29.224570 44.289413 66.554010
RightForeArm 61.427235 -0.000000 145.322116
RightHand 9.178083 -0.000000 51.685686
RightHandThumb1 -24.326973 -0.000000 -32.862282
LeftUpLeg -14.265434 4.931930 4.554797
LeftLeg 0.837797 -0.000000 -0.000000
LeftFoot -11.696662 6.776226 -18.369891
LeftToeBase 9.595856 -0.000000 -0.000000
RightUpLeg -14.142753 -7.577726 -0.598969
RightLeg 3.469807 -0.000000 -0.000000
RightFoot -9.078675 -3.972157 -13.362546
RightToeBase 0.126597 -0.000000 -0.000000
